# xmcd
#
# Track frame offsets: 
#        150
#        20642
#        40575
#        55540
#        71342
#        96867
#        117347
#        132102
#        154852
#        174087
#
# Disc length: 2550 seconds
#
# Revision: 1
# Processed by: cddbd v1.5PL3 Copyright (c) Steve Scherf et al.
# Submitted via: ExactAudioCopy v0.90b4
#
DISCID=7409f40a
DTITLE=The Charlie Daniels Band - Powder Keg
DYEAR=1900
DGENRE=Country
TTITLE0=Bogged Down In Love With You
TTITLE1=Bottom Line
TTITLE2=Love Pouring Out Of Me
TTITLE3=Saturday Night U.S.A.
TTITLE4=Dance With Me
TTITLE5=Powder Keg
TTITLE6=What She Do To Me
TTITLE7=Trapped In The City
TTITLE8=Stay With Me
TTITLE9=Juanita
EXTD=
EXTT0=
EXTT1=
EXTT2=
EXTT3=
EXTT4=
EXTT5=
EXTT6=
EXTT7=
EXTT8=
EXTT9=
PLAYORDER=
